<svg xmlns="http://www.w3.org/2000/svg" width="61" height="61" fill="none"><path fill="#121212" fill-rule="evenodd" d="M18.624 36.143c9.665 0 17.499-7.835 17.499-17.5 0-9.664-7.834-17.498-17.499-17.498-9.664 0-17.499 7.834-17.499 17.499 0 9.664 7.835 17.499 17.499 17.499Zm2.252-20.752V27.47a2.307 2.307 0 0 1-2.305 2.31 2.307 2.307 0 0 1-2.305-2.31V15.391l-3.888 3.896c-.9.902-2.36.902-3.26 0-.9-.902-.9-2.364 0-3.266l7.823-7.838a2.303 2.303 0 0 1 3.26 0l7.823 7.838c.9.902.9 2.364 0 3.266-.9.902-2.36.902-3.26 0l-3.888-3.896Z" clip-rule="evenodd"/><path fill="#121212" fill-rule="evenodd" d="M18.535 40.155v12.717c0 4.212 3.433 7.648 7.643 7.648h26.679c4.209 0 7.642-3.436 7.642-7.648V26.178c0-4.212-3.421-7.647-7.642-7.647H40.248c0 2.04-.282 4.012-.81 5.883h13.419c.976 0 1.763.788 1.763 1.764v22.988l-2.163-2.2a2.953 2.953 0 0 0-2.105-.882c-.788 0-1.552.33-2.093.894l-3.986 4.118-10.147-10.2a2.933 2.933 0 0 0-4.15-.012l-5.55 5.506v-7.022a21.644 21.644 0 0 1-5.89.787Zm26.244-10.07a4.294 4.294 0 0 0 0 8.587 4.302 4.302 0 0 0 4.291-4.294 4.302 4.302 0 0 0-4.291-4.294Z" clip-rule="evenodd"/></svg>